<mxfile host="app.diagrams.net" modified="2021-10-20T08:10:53.109Z" agent="5.0 (Windows NT 10.0; Win64; x64) AppleWebKit/537.36 (KHTML, like Gecko) Chrome/94.0.4606.81 Safari/537.36" etag="VFiXlICedL9Xl37SKE9j" version="15.5.2" type="github">
  <diagram id="C5RBs43oDa-KdzZeNtuy" name="Page-1">
    <mxGraphModel dx="535" dy="617" grid="1" gridSize="10" guides="1" tooltips="1" connect="1" arrows="1" fold="1" page="1" pageScale="1" pageWidth="827" pageHeight="1169" math="0" shadow="0">
      <root>
        <mxCell id="WIyWlLk6GJQsqaUBKTNV-0" />
        <mxCell id="WIyWlLk6GJQsqaUBKTNV-1" parent="WIyWlLk6GJQsqaUBKTNV-0" />
        <mxCell id="TCR1QR2NzLEMR6kC5FTA-0" value="Fact_BanquetHall" style="swimlane;fontStyle=0;childLayout=stackLayout;horizontal=1;startSize=26;fillColor=none;horizontalStack=0;resizeParent=1;resizeParentMax=0;resizeLast=0;collapsible=1;marginBottom=0;" vertex="1" parent="WIyWlLk6GJQsqaUBKTNV-1">
          <mxGeometry x="274" y="90" width="140" height="224" as="geometry" />
        </mxCell>
        <mxCell id="TCR1QR2NzLEMR6kC5FTA-1" value="BanquateHall_ID" style="text;strokeColor=none;fillColor=none;align=center;verticalAlign=top;spacingLeft=4;spacingRight=4;overflow=hidden;rotatable=0;points=[[0,0.5],[1,0.5]];portConstraint=eastwest;" vertex="1" parent="TCR1QR2NzLEMR6kC5FTA-0">
          <mxGeometry y="26" width="140" height="26" as="geometry" />
        </mxCell>
        <mxCell id="TCR1QR2NzLEMR6kC5FTA-2" value="Order_ID" style="text;strokeColor=none;fillColor=none;align=center;verticalAlign=top;spacingLeft=4;spacingRight=4;overflow=hidden;rotatable=0;points=[[0,0.5],[1,0.5]];portConstraint=eastwest;" vertex="1" parent="TCR1QR2NzLEMR6kC5FTA-0">
          <mxGeometry y="52" width="140" height="26" as="geometry" />
        </mxCell>
        <mxCell id="TCR1QR2NzLEMR6kC5FTA-3" value="Food_ID&#xa;" style="text;strokeColor=none;fillColor=none;align=center;verticalAlign=top;spacingLeft=4;spacingRight=4;overflow=hidden;rotatable=0;points=[[0,0.5],[1,0.5]];portConstraint=eastwest;" vertex="1" parent="TCR1QR2NzLEMR6kC5FTA-0">
          <mxGeometry y="78" width="140" height="26" as="geometry" />
        </mxCell>
        <mxCell id="TCR1QR2NzLEMR6kC5FTA-30" value="Employee_ID" style="text;html=1;strokeColor=none;fillColor=none;align=center;verticalAlign=middle;whiteSpace=wrap;rounded=0;" vertex="1" parent="TCR1QR2NzLEMR6kC5FTA-0">
          <mxGeometry y="104" width="140" height="30" as="geometry" />
        </mxCell>
        <mxCell id="TCR1QR2NzLEMR6kC5FTA-35" value="Location_ID" style="text;html=1;align=center;verticalAlign=middle;resizable=0;points=[];autosize=1;strokeColor=none;fillColor=none;" vertex="1" parent="TCR1QR2NzLEMR6kC5FTA-0">
          <mxGeometry y="134" width="140" height="20" as="geometry" />
        </mxCell>
        <mxCell id="TCR1QR2NzLEMR6kC5FTA-29" value="Type&lt;br&gt;" style="text;html=1;strokeColor=none;fillColor=none;align=center;verticalAlign=middle;whiteSpace=wrap;rounded=0;" vertex="1" parent="TCR1QR2NzLEMR6kC5FTA-0">
          <mxGeometry y="154" width="140" height="30" as="geometry" />
        </mxCell>
        <mxCell id="TCR1QR2NzLEMR6kC5FTA-31" value="Tables" style="text;html=1;align=center;verticalAlign=middle;resizable=0;points=[];autosize=1;strokeColor=none;fillColor=none;" vertex="1" parent="TCR1QR2NzLEMR6kC5FTA-0">
          <mxGeometry y="184" width="140" height="20" as="geometry" />
        </mxCell>
        <mxCell id="TCR1QR2NzLEMR6kC5FTA-46" value="Date" style="text;html=1;align=center;verticalAlign=middle;resizable=0;points=[];autosize=1;strokeColor=none;fillColor=none;" vertex="1" parent="TCR1QR2NzLEMR6kC5FTA-0">
          <mxGeometry y="204" width="140" height="20" as="geometry" />
        </mxCell>
        <mxCell id="TCR1QR2NzLEMR6kC5FTA-4" value="Dim_Employee" style="swimlane;fontStyle=0;childLayout=stackLayout;horizontal=1;startSize=26;fillColor=none;horizontalStack=0;resizeParent=1;resizeParentMax=0;resizeLast=0;collapsible=1;marginBottom=0;" vertex="1" parent="WIyWlLk6GJQsqaUBKTNV-1">
          <mxGeometry x="50" y="300" width="140" height="96" as="geometry" />
        </mxCell>
        <mxCell id="TCR1QR2NzLEMR6kC5FTA-32" value="Employee_ID" style="text;html=1;strokeColor=none;fillColor=none;align=center;verticalAlign=middle;whiteSpace=wrap;rounded=0;" vertex="1" parent="TCR1QR2NzLEMR6kC5FTA-4">
          <mxGeometry y="26" width="140" height="30" as="geometry" />
        </mxCell>
        <mxCell id="TCR1QR2NzLEMR6kC5FTA-39" value="Wage" style="text;html=1;align=center;verticalAlign=middle;resizable=0;points=[];autosize=1;strokeColor=none;fillColor=none;" vertex="1" parent="TCR1QR2NzLEMR6kC5FTA-4">
          <mxGeometry y="56" width="140" height="20" as="geometry" />
        </mxCell>
        <mxCell id="TCR1QR2NzLEMR6kC5FTA-38" value="Name&lt;br&gt;" style="text;html=1;align=center;verticalAlign=middle;resizable=0;points=[];autosize=1;strokeColor=none;fillColor=none;" vertex="1" parent="TCR1QR2NzLEMR6kC5FTA-4">
          <mxGeometry y="76" width="140" height="20" as="geometry" />
        </mxCell>
        <mxCell id="TCR1QR2NzLEMR6kC5FTA-8" value="Dim_Order" style="swimlane;fontStyle=0;childLayout=stackLayout;horizontal=1;startSize=26;fillColor=none;horizontalStack=0;resizeParent=1;resizeParentMax=0;resizeLast=0;collapsible=1;marginBottom=0;" vertex="1" parent="WIyWlLk6GJQsqaUBKTNV-1">
          <mxGeometry x="70" y="24" width="140" height="92" as="geometry" />
        </mxCell>
        <mxCell id="TCR1QR2NzLEMR6kC5FTA-33" value="Order_ID" style="text;strokeColor=none;fillColor=none;align=center;verticalAlign=top;spacingLeft=4;spacingRight=4;overflow=hidden;rotatable=0;points=[[0,0.5],[1,0.5]];portConstraint=eastwest;" vertex="1" parent="TCR1QR2NzLEMR6kC5FTA-8">
          <mxGeometry y="26" width="140" height="26" as="geometry" />
        </mxCell>
        <mxCell id="TCR1QR2NzLEMR6kC5FTA-44" value="Cost" style="text;html=1;align=center;verticalAlign=middle;resizable=0;points=[];autosize=1;strokeColor=none;fillColor=none;" vertex="1" parent="TCR1QR2NzLEMR6kC5FTA-8">
          <mxGeometry y="52" width="140" height="20" as="geometry" />
        </mxCell>
        <mxCell id="TCR1QR2NzLEMR6kC5FTA-45" value="OrderDate&amp;nbsp;" style="text;html=1;align=center;verticalAlign=middle;resizable=0;points=[];autosize=1;strokeColor=none;fillColor=none;" vertex="1" parent="TCR1QR2NzLEMR6kC5FTA-8">
          <mxGeometry y="72" width="140" height="20" as="geometry" />
        </mxCell>
        <mxCell id="TCR1QR2NzLEMR6kC5FTA-12" value="Dim_Location" style="swimlane;fontStyle=0;childLayout=stackLayout;horizontal=1;startSize=26;fillColor=none;horizontalStack=0;resizeParent=1;resizeParentMax=0;resizeLast=0;collapsible=1;marginBottom=0;" vertex="1" parent="WIyWlLk6GJQsqaUBKTNV-1">
          <mxGeometry x="470" y="320" width="140" height="86" as="geometry" />
        </mxCell>
        <mxCell id="TCR1QR2NzLEMR6kC5FTA-36" value="Location_ID" style="text;html=1;align=center;verticalAlign=middle;resizable=0;points=[];autosize=1;strokeColor=none;fillColor=none;" vertex="1" parent="TCR1QR2NzLEMR6kC5FTA-12">
          <mxGeometry y="26" width="140" height="20" as="geometry" />
        </mxCell>
        <mxCell id="TCR1QR2NzLEMR6kC5FTA-40" value="Room" style="text;html=1;align=center;verticalAlign=middle;resizable=0;points=[];autosize=1;strokeColor=none;fillColor=none;" vertex="1" parent="TCR1QR2NzLEMR6kC5FTA-12">
          <mxGeometry y="46" width="140" height="20" as="geometry" />
        </mxCell>
        <mxCell id="TCR1QR2NzLEMR6kC5FTA-41" value="Adress" style="text;html=1;align=center;verticalAlign=middle;resizable=0;points=[];autosize=1;strokeColor=none;fillColor=none;" vertex="1" parent="TCR1QR2NzLEMR6kC5FTA-12">
          <mxGeometry y="66" width="140" height="20" as="geometry" />
        </mxCell>
        <mxCell id="TCR1QR2NzLEMR6kC5FTA-17" value="Dim_Food" style="swimlane;fontStyle=0;childLayout=stackLayout;horizontal=1;startSize=26;fillColor=none;horizontalStack=0;resizeParent=1;resizeParentMax=0;resizeLast=0;collapsible=1;marginBottom=0;" vertex="1" parent="WIyWlLk6GJQsqaUBKTNV-1">
          <mxGeometry x="470" y="24" width="140" height="92" as="geometry" />
        </mxCell>
        <mxCell id="TCR1QR2NzLEMR6kC5FTA-37" value="Food_ID&#xa;" style="text;strokeColor=none;fillColor=none;align=center;verticalAlign=top;spacingLeft=4;spacingRight=4;overflow=hidden;rotatable=0;points=[[0,0.5],[1,0.5]];portConstraint=eastwest;" vertex="1" parent="TCR1QR2NzLEMR6kC5FTA-17">
          <mxGeometry y="26" width="140" height="26" as="geometry" />
        </mxCell>
        <mxCell id="TCR1QR2NzLEMR6kC5FTA-42" value="Food_Name" style="text;html=1;align=center;verticalAlign=middle;resizable=0;points=[];autosize=1;strokeColor=none;fillColor=none;" vertex="1" parent="TCR1QR2NzLEMR6kC5FTA-17">
          <mxGeometry y="52" width="140" height="20" as="geometry" />
        </mxCell>
        <mxCell id="TCR1QR2NzLEMR6kC5FTA-43" value="Description" style="text;html=1;align=center;verticalAlign=middle;resizable=0;points=[];autosize=1;strokeColor=none;fillColor=none;" vertex="1" parent="TCR1QR2NzLEMR6kC5FTA-17">
          <mxGeometry y="72" width="140" height="20" as="geometry" />
        </mxCell>
        <mxCell id="TCR1QR2NzLEMR6kC5FTA-57" value="" style="endArrow=classic;html=1;rounded=0;exitX=1.007;exitY=0.617;exitDx=0;exitDy=0;exitPerimeter=0;entryX=-0.024;entryY=0.558;entryDx=0;entryDy=0;entryPerimeter=0;" edge="1" parent="WIyWlLk6GJQsqaUBKTNV-1" source="TCR1QR2NzLEMR6kC5FTA-35" target="TCR1QR2NzLEMR6kC5FTA-36">
          <mxGeometry width="50" height="50" relative="1" as="geometry">
            <mxPoint x="320" y="230" as="sourcePoint" />
            <mxPoint x="450" y="80" as="targetPoint" />
            <Array as="points">
              <mxPoint x="440" y="236" />
              <mxPoint x="440" y="357" />
            </Array>
          </mxGeometry>
        </mxCell>
        <mxCell id="TCR1QR2NzLEMR6kC5FTA-59" value="" style="endArrow=classic;html=1;rounded=0;exitX=0;exitY=0.5;exitDx=0;exitDy=0;entryX=1;entryY=0.5;entryDx=0;entryDy=0;" edge="1" parent="WIyWlLk6GJQsqaUBKTNV-1" source="TCR1QR2NzLEMR6kC5FTA-2" target="TCR1QR2NzLEMR6kC5FTA-33">
          <mxGeometry width="50" height="50" relative="1" as="geometry">
            <mxPoint x="320" y="230" as="sourcePoint" />
            <mxPoint x="370" y="180" as="targetPoint" />
            <Array as="points">
              <mxPoint x="250" y="155" />
              <mxPoint x="250" y="63" />
            </Array>
          </mxGeometry>
        </mxCell>
        <mxCell id="TCR1QR2NzLEMR6kC5FTA-60" value="" style="endArrow=classic;html=1;rounded=0;exitX=0;exitY=0.5;exitDx=0;exitDy=0;entryX=1;entryY=0.25;entryDx=0;entryDy=0;" edge="1" parent="WIyWlLk6GJQsqaUBKTNV-1" source="TCR1QR2NzLEMR6kC5FTA-30" target="TCR1QR2NzLEMR6kC5FTA-32">
          <mxGeometry width="50" height="50" relative="1" as="geometry">
            <mxPoint x="320" y="230" as="sourcePoint" />
            <mxPoint x="370" y="180" as="targetPoint" />
            <Array as="points">
              <mxPoint x="240" y="209" />
              <mxPoint x="240" y="334" />
            </Array>
          </mxGeometry>
        </mxCell>
        <mxCell id="TCR1QR2NzLEMR6kC5FTA-61" value="" style="endArrow=classic;html=1;rounded=0;exitX=1;exitY=0.5;exitDx=0;exitDy=0;entryX=0;entryY=0.5;entryDx=0;entryDy=0;" edge="1" parent="WIyWlLk6GJQsqaUBKTNV-1" source="TCR1QR2NzLEMR6kC5FTA-3" target="TCR1QR2NzLEMR6kC5FTA-37">
          <mxGeometry width="50" height="50" relative="1" as="geometry">
            <mxPoint x="320" y="230" as="sourcePoint" />
            <mxPoint x="370" y="180" as="targetPoint" />
            <Array as="points">
              <mxPoint x="460" y="181" />
              <mxPoint x="460" y="63" />
            </Array>
          </mxGeometry>
        </mxCell>
      </root>
    </mxGraphModel>
  </diagram>
</mxfile>
